<svg width="32" height="32" viewBox="0 0 32 32" fill="none" xmlns="http://www.w3.org/2000/svg">
<path fill-rule="evenodd" clip-rule="evenodd" d="M5.33248 15.2934L0.0186712 10.7979L0.0120498 16.8315L0 27.5814L5.32756 23.074L5.32868 23.0744L5.33248 19.5437V15.2934ZM19.853 13.2205V14.33V15.4396V18.513L19.8582 23.1L19.8534 23.0971L19.8582 27.582L14.5298 23.074L14.5284 21.7627L14.5202 22.9948V20.2084V18.7193L14.5298 18.7137L14.5295 18.513H14.5202V16.5003V15.3768L13.0188 16.6535L9.9876 19.2319L5.72374 15.6244L19.7749 3.67309L24.0934 0L24.1123 0.0249764V7.21802L19.853 10.8408V13.2205Z" fill="currentColor"/>
<path fill-rule="evenodd" clip-rule="evenodd" d="M21.64 25.8588L22.4401 25.1456L23.2402 24.4324L25.4565 22.4569L28.7677 19.5126L28.7626 19.5105L31.9999 16.6316L25.3239 15.1933L24.3774 16.0351L25.2606 15.2364L23.2513 17.0274L22.1774 17.9846L22.1796 17.996L22.0347 18.1249L22.0286 18.1172L20.5772 19.411L19.767 20.1331L19.7227 18.0907L19.6336 13.9668L14.2914 12.8159L14.7048 31.9322L19.9238 27.3884L21.64 25.8588Z" fill="currentColor"/>
</svg>
